<svg id="Camada_1" data-name="Camada 1" xmlns="http://www.w3.org/2000/svg" viewBox="0 0 1080 746.38"><defs><style>.cls-1{fill:#2d2926;}.cls-2{fill:#ffbe3d;}.cls-3{fill:#f3523f;}.cls-4{fill:#ffdb73;}</style></defs><path class="cls-1" d="M566.05,615q18.71-3,37.32-6.25a3.56,3.56,0,0,0,2.91-3.93q-6.84-55.71-12.72-111.47a3.55,3.55,0,0,0-4-3.13c-55.72,7.41-106.79,12.72-163.87,15.47a3.56,3.56,0,0,0-3.38,3.76l11.75,186.57a3.55,3.55,0,0,0,3.54,3.32H493a3.53,3.53,0,0,0,3.49-4.18c-4-21.36-8.31-45.75-11.79-65.12a3.53,3.53,0,0,1,3.06-4.12q9.14-1.1,18.3-2.29a3.52,3.52,0,0,1,3.44,1.62q22.89,36.47,47.48,72.54a3.55,3.55,0,0,0,2.94,1.55h55.33a3.52,3.52,0,0,0,2.78-5.7q-28.1-36.21-54.33-73.09A3.54,3.54,0,0,1,566.05,615Zm-89.94-33.14c-1.06-11.53-2.07-23.1-3.06-34.64a3.53,3.53,0,0,1,3.2-3.82q32.79-3,65.21-7.13a3.52,3.52,0,0,1,3.93,3q2.45,16,5,31.9a3.54,3.54,0,0,1-2.92,4.06q-33.42,5.49-67.3,9.88A3.58,3.58,0,0,1,476.11,581.89Z"/><path class="cls-1" d="M695.62,489.51c2,68.12,4.12,138.36,6.54,206.45a3.54,3.54,0,0,0,3.55,3.41H833.3a3.54,3.54,0,0,0,3.54-3.65q-.51-18-1.07-36a3.53,3.53,0,0,0-3.73-3.42q-37.45,2-74.93,2.79a3.56,3.56,0,0,1-3.63-3.48q-1.46-61.41-2.8-122.86a3.54,3.54,0,0,1,3.57-3.62q39,.4,78.1-.59a3.56,3.56,0,0,0,3.47-3.56q0-16.14-.05-32.3a3.55,3.55,0,0,0-3.47-3.54l-36.21-.87c-22.29-.17-45.25-.85-67.47-1.64l-29.37-.79A3.54,3.54,0,0,0,695.62,489.51Z"/><path class="cls-1" d="M1004.23,532.66c-28.76-.95-73.92-2.78-91-3.58a3.54,3.54,0,0,0-3.69,3.69c.39,11.92-.41,23.23,0,35.17a3.57,3.57,0,0,0,3.54,3.4q24.2.2,48.46-.14a3.54,3.54,0,0,1,3.59,3.53q0,16.62.06,33.22a3.56,3.56,0,0,1-3.47,3.56q-23,.54-46,.63a3.53,3.53,0,0,0-3.52,3.72q1,17.71,1.93,35.42a3.52,3.52,0,0,0,3.6,3.35c21.07-.44,54.59-1.22,78.52-2.21a3.54,3.54,0,0,1,3.68,3.77l-2.5,39.73a3.52,3.52,0,0,1-3.51,3.32c-30.36.06-115.16.12-133.6.13a3.53,3.53,0,0,1-3.54-3.57q.81-101.25.19-202.39a3.54,3.54,0,0,1,3.63-3.56l145.9,3.47a3.54,3.54,0,0,1,3.45,3.77l-2,32.25A3.55,3.55,0,0,1,1004.23,532.66Z"/><path class="cls-1" d="M684.42,699.36H647.75a3.53,3.53,0,0,1-3.5-3C636.08,642.1,626.33,580.74,620,528.48a3.53,3.53,0,0,1,3-3.91q21.66-3.14,43.18-6.73a3.51,3.51,0,0,1,4.1,3.19c4.31,54.46,11.9,118,17.65,174.44A3.54,3.54,0,0,1,684.42,699.36Z"/><path class="cls-1" d="M516.47,394.33q6.63-.91,13.26-1.86a3.52,3.52,0,0,1,4,2.89q1.93,11.17,3.94,22.36a3.56,3.56,0,0,0,4,2.9q16.88-2.42,33.65-5.1a3.54,3.54,0,0,0,2.94-4Q576.59,400.25,575,389a3.54,3.54,0,0,1,2.93-4q8.57-1.44,17.12-2.94a3.53,3.53,0,0,1,4.11,3c5.1,40.75,9.47,75.55,15.39,116.26a3.56,3.56,0,0,0,3.92,3q22.62-2.52,45.12-5.51a3.55,3.55,0,0,0,3-4.22c-8.34-41.37-15-76.87-22.36-118.33a3.55,3.55,0,0,1,2.8-4.1l1.45-.3c4.33-.93,8.64-1.87,13-2.83a3.54,3.54,0,0,0,2.76-3.77q-2.1-24.43-4.09-48.87a3.53,3.53,0,0,0-4.62-3.07q-8.46,2.79-17,5.49a3.56,3.56,0,0,1-4.59-2.82q-5.09-30.82-9.79-61.68a3.52,3.52,0,0,0-4.32-2.89q-15.92,3.89-32,7.52a3.54,3.54,0,0,0-2.74,3.82q3.51,33.51,7.39,67a3.55,3.55,0,0,1-2.53,3.82q-8.9,2.58-17.82,5.08a3.54,3.54,0,0,1-4.48-2.92c-3.37-24.51-10.84-73.33-13.94-97.81a3.51,3.51,0,0,0-4.36-3q-18.4,4.61-37,8.87a3.52,3.52,0,0,0-2.71,4c3.68,24.68,12.06,75.3,16.08,99.95a3.52,3.52,0,0,1-2.63,4q-7.25,1.83-14.53,3.62a3.55,3.55,0,0,0-2.64,4.14q3.21,16,6.56,32A3.58,3.58,0,0,0,516.47,394.33Z"/><path class="cls-1" d="M680,467.56q-2.58-77.3-4.57-154.55a3.55,3.55,0,0,1,3.12-3.61q19.95-2.38,39.76-5.19a3.54,3.54,0,0,1,4,3.75q-5.53,80.15-12,160.32a3.55,3.55,0,0,1-3.62,3.27l-23.2-.56A3.54,3.54,0,0,1,680,467.56Z"/><path class="cls-1" d="M1029.55,475.91l11.87-165.67a3.55,3.55,0,0,0-3.05-3.77l-19.78-2.76a3.54,3.54,0,0,0-4,2.8l-11.7,57.4a3.55,3.55,0,0,1-6.87.34q-11.87-37.87-23.25-75.84a3.52,3.52,0,0,0-2.79-2.47q-17.74-3-35.35-6.39a3.52,3.52,0,0,0-4.12,2.74c-12,57.09-39,164.91-45.19,189.21a3.54,3.54,0,0,0,3.35,4.42l47,1.11a3.54,3.54,0,0,0,3.59-3c3.74-23,7.2-47.52,10.51-71.15a3.54,3.54,0,0,1,7-.1q6.27,36.1,12.68,72.18a3.55,3.55,0,0,0,3.41,2.92l53,1.28A3.54,3.54,0,0,0,1029.55,475.91Z"/><path class="cls-1" d="M901.35,326.51q10.27-22.53,20-45.15a3.54,3.54,0,0,0-2.59-4.88q-13.42-2.6-26.77-5.38a3.51,3.51,0,0,0-4.21,3q-3.06,23.3-6.35,46.59a3.55,3.55,0,0,0,2.5,3.9q6.56,2,13.13,3.88A3.58,3.58,0,0,0,901.35,326.51Z"/><path class="cls-1" d="M873.92,470.67c-8.51-22.11-38.75-101.86-52.37-140.83a3.5,3.5,0,0,1,.84-3.65c14.54-14.45,60.89-61.77,76.41-77.3a3.54,3.54,0,0,0-1.77-6q-19.66-4.21-39.12-8.8s0,0-.07-.07c-14.24,12.34-46.78,43.73-65.58,60a3.54,3.54,0,0,1-5.84-2.91q1.3-21.3,2.53-42.57a3.54,3.54,0,0,0-3.72-3.74q-69.08,3.78-138.33,2.71a3.54,3.54,0,0,0-3.57,4q2.65,21,5.43,41.87a3.57,3.57,0,0,0,3.89,3.07q44.11-4.38,87.78-10.72a3.53,3.53,0,0,1,4,3.78q-7,89.43-15.42,178.75a3.54,3.54,0,0,0,3.44,3.87l37.81.92a3.56,3.56,0,0,0,3.63-3.27q4-51.53,7.57-103.16a3.5,3.5,0,0,1,1.14-2.36l.05-.05a3.53,3.53,0,0,1,5.78,1.59q15.74,52.47,32.9,104.64s0,0-.11,0c.18.5.35,1,.52,1.49a3.54,3.54,0,0,0,3.26,2.39l45.48,1.1A3.54,3.54,0,0,0,873.92,470.67Z"/><path class="cls-1" d="M586.14,474.07c-58.68,6.54-116.53,10.8-180.92,15.24a3.55,3.55,0,0,1-3.8-3.31L389.7,300.11a3.54,3.54,0,0,1,3.1-3.73q48.39-6.08,95.79-14.4a3.52,3.52,0,0,1,4.1,2.93q2.9,18.64,5.93,37.28a3.56,3.56,0,0,1-2.88,4.07q-22.25,4-44.68,7.45a3.54,3.54,0,0,0-3,3.78q4.1,51.51,9.25,103a3.58,3.58,0,0,0,3.91,3.2q59-6,116.81-15.16a3.51,3.51,0,0,1,4,2.85q3.5,19.23,7.17,38.46A3.56,3.56,0,0,1,586.14,474.07Z"/><path class="cls-2" d="M352,458.64a43.91,43.91,0,0,1,16.09,52c-39.78,100.94-159.82,129.62-263.56,89.7-9.28-3.58-41-15.27-45.47-100,12.29-67.73,13.94-117,32.38-145.15,23.82-36.39,63.91-68.29,115.65-68.05,137.23.64,118.31,143.06,132.82,160.57A59.87,59.87,0,0,0,352,458.64Z"/><path class="cls-3" d="M368.71,220.65c1.7,12.24-12.66,25.72-25.77,31.71-26.54,12.15-45.9-7.24-61.47,4-18.16,13.08-.49,45.81-17.84,62.44-16.69,16-56.61,8.33-81.28-8.92-47.5-33.2-56.86-114.77-33.71-173.47C183.42,48.18,297.11-2.4,340,26.35c20.22,13.56,26.85,46.27,21.8,71.37-4,20-15.33,34.46-26.54,44.32a30.76,30.76,0,0,1,19.61,4.26c12.19,7.59,18,24.15,12.88,36.67-3.41,8.32-11.56,14.67-21.56,17.1C359.19,204.65,367.57,212.44,368.71,220.65Z"/><path class="cls-4" d="M386.35,107.66c-4,19.49-14.77,33.61-25.65,43.46a29.57,29.57,0,0,0-5.86-4.82A30.76,30.76,0,0,0,335.23,142c11.21-9.86,22.52-24.31,26.54-44.32,4.76-23.69-.88-54.16-18.52-68.88,8.17,1,15.39,3.48,21.28,7.43C384.73,49.85,391.37,82.55,386.35,107.66Z"/><path class="cls-4" d="M393.26,230.55c1.72,12.28-12.66,25.74-25.75,31.73-26.56,12.18-45.92-7.23-61.46,4-13.15,9.44-7.6,29.17-10.06,45.68C362.68,349,352.88,443.5,364.53,457.57a1.59,1.59,0,0,0,.13.13c9,10.86,12.42,25.27,8.37,38.77-1.37,4.51-2.89,8.88-4.54,13.14a43.92,43.92,0,0,0-16.45-51,60.2,60.2,0,0,1-12.1-11C328.3,433.57,338.21,339,271.5,301.91c2.41-16.46-3.13-36.13,10-45.57,15.57-11.22,34.93,8.17,61.47-4,13.11-6,27.47-19.47,25.77-31.71-1.14-8.21-9.52-16-22.55-20.58,10-2.43,18.15-8.78,21.56-17.1,4.09-10,1.21-22.57-6.33-31.1a30.1,30.1,0,0,1,18,4.36c12.24,7.59,18,24.15,12.89,36.67-3.38,8.36-11.57,14.63-21.61,17.09C383.7,214.56,392.13,222.36,393.26,230.55Z"/><path class="cls-3" d="M361.39,151.87c-.57,0-1.13.09-1.69.14.34-.29.67-.59,1-.89C360.93,151.36,361.17,151.61,361.39,151.87Z"/><path class="cls-3" d="M131.31,578C89,593.5,76.3,643.8,75.46,647.34c-.62,2.61-11.6,50.76,7.93,61.13,13.45,7.15,34.42-7.31,44-16.52,18.51-17.89,20.23-41.48,20.49-48.24,5.28,14.44,18.7,23.51,32,22.47,19.72-1.55,31.82-24.57,27.76-35.69-2.81-7.69-11.84-5.51-19.83-17.84-4.38-6.77-6.82-15.39-8.26-20.49-2.58-9.14-1.62-10.37-3.31-12.89C170,570,147,572.2,131.31,578Z"/><path class="cls-1" d="M107.57,398c-8.39,0-15.19,10-15.19,22.29s6.8,22.28,15.19,22.28,15.19-10,15.19-22.28S116,398,107.57,398Z"/><ellipse class="cls-1" cx="214.88" cy="420.29" rx="15.19" ry="22.29"/><path class="cls-1" d="M196.91,494.41c-.34-3.43-2.19-8.5-9.13-13.22-13.21-9-41-14.19-64.74-7.38-10.22,2.94-16.37,7.12-22.88,11.55a108.32,108.32,0,0,1-20.82,11.7,123.39,123.39,0,0,1-44.52,9.46,8.54,8.54,0,0,0-3,16.42c11.35,4.75,45.24,11.78,75.11,15.23,0,.42-.06.85-.05,1.26,0-.21,0-.38,0-.52a5.94,5.94,0,0,1,0,.78c-.09.61-.19,1.22-.29,1.83-.2,1.21-.42,2.42-.65,3.63a132.57,132.57,0,0,1-3.51,14c-.69,2.25-1.45,4.49-2.26,6.7q-.65,1.74-1.32,3.45a8.08,8.08,0,0,1-.7,1.71l.23-.54-.37.85a136.51,136.51,0,0,1-6.66,13.17,8.23,8.23,0,0,0,.64,9.1c2.11,2.73,5.28,3.55,8.6,2.93a158.24,158.24,0,0,0,26.76-6.94,89.48,89.48,0,0,0,26.21-15.21A182,182,0,0,0,174,554.74a86,86,0,0,0,15.67-26.19A112.63,112.63,0,0,0,194.68,511,37.07,37.07,0,0,0,196.91,494.41ZM86,512.8a124.4,124.4,0,0,0,23.79-13.31c5.81-4,10.4-7.08,18-9.26,23.4-6.72,48.49,1.93,52.19,6.52a20.39,20.39,0,0,1-5.06,14.6c-6.23,7.12-18,11.18-34,11.75s-42.17-2.74-64.26-6.75Q81.36,514.76,86,512.8ZM165.78,539l-.74,1,0,.07-.59.74c-5.8,7.12-12.71,13.46-19.59,19.53-1.5,1.33-3.11,3.16-4.89,4.11,1.68-.89,0,0-.37.27l-1.29.94c-1.1.78-2.22,1.52-3.36,2.23-1.69,1.06-3.42,2-5.2,2.94-.88.45-1.78.89-2.68,1.31l-1.63.73-.1,0-.42.17a112,112,0,0,1-11.65,3.87,144.78,144.78,0,0,0,10-37.23c5,.34,9.72.54,14,.54,1.49,0,2.93,0,4.3-.07a87.45,87.45,0,0,0,26.63-4.68c-.15.25-.3.5-.46.75C167,537.17,166.42,538.08,165.78,539Z"/><path class="cls-1" d="M106.84,538.91c0-.43,0-.7,0,0Z"/><path class="cls-1" d="M268.74,356.59c-6.44-8.19-13.41-16.62-23.14-21a34.09,34.09,0,0,0-17.11-3.34c-3.07.27-6.1.83-9.12,1.4-1.15.21-2.37.53-3.54.63l-.93,0c-.74.05-1.48.07-2.22.07-4.29,0-8.39,3.77-8.19,8.18a8.33,8.33,0,0,0,8.19,8.19,52.16,52.16,0,0,0,9.15-1c1.26-.22,2.52-.47,3.78-.71l1.57-.28.6-.09a32.72,32.72,0,0,1,3.57-.2c.48,0,1,.06,1.44.06h.11c1.09.23,2.16.46,3.23.79.54.17,1.06.37,1.59.56h.05l.08,0a43.6,43.6,0,0,1,5.63,3.33l.28.21,1,.86c.93.81,1.84,1.65,2.71,2.52a119.48,119.48,0,0,1,9.66,11.3c1.2,1.54,3.93,2.4,5.78,2.4a8.19,8.19,0,0,0,8.19-8.19A9.61,9.61,0,0,0,268.74,356.59Z"/><path class="cls-1" d="M71.72,364.27a8.34,8.34,0,0,0,11.2-2.94c.21-.35.45-.69.65-1,.46-.5.91-1,1.4-1.49s1.07-.95,1.62-1.41l.08-.05c.3-.21.59-.43.9-.63a91.27,91.27,0,0,1,9-5.42c.44-.13.87-.3,1.32-.43s.78-.21,1.18-.3l1-.18h.1c.51,0,1-.07,1.52-.07.92,0,1.84,0,2.76.07.41,0,.82.06,1.23.11h0s0,0,0,0,0,0,.05,0c1.29.13.7.15.27.08.66.15,2.23.33,2.45.38,1.94.38,3.86.84,5.78,1.3,4.16,1,9.07-1.31,10.07-5.71,1-4.22-1.26-9-5.71-10.07A82.18,82.18,0,0,0,104.19,334,32.25,32.25,0,0,0,89,336.82a63.43,63.43,0,0,0-10.18,6.06,33.52,33.52,0,0,0-10.07,10.19C66.6,356.75,67.83,362.21,71.72,364.27Z"/><path class="cls-1" d="M105.73,350.49a.87.87,0,0,0,.3.08,1.31,1.31,0,0,1-.27-.08Z"/></svg>